<svg width="1106" height="332" viewBox="0 0 1106 332" fill="none" xmlns="http://www.w3.org/2000/svg">
<rect x="594.706" y="32.7742" width="510.528" height="266.813" rx="41.4473" fill="#7A25E7"/>
<path d="M189.641 88.6008V243.391H151.935V150.561L117.317 243.391H86.8879L52.049 150.341V243.391H14.3436V88.6008H58.8845L102.323 195.764L145.32 88.6008H189.641ZM332.738 179.888C332.738 183.416 332.518 187.091 332.077 190.913H246.743C247.331 198.557 249.757 204.437 254.02 208.553C258.43 212.522 263.795 214.506 270.116 214.506C279.524 214.506 286.066 210.537 289.741 202.599H329.872C327.814 210.684 324.065 217.961 318.626 224.429C313.334 230.897 306.646 235.968 298.561 239.643C290.476 243.318 281.435 245.155 271.439 245.155C259.385 245.155 248.654 242.583 239.246 237.438C229.838 232.293 222.488 224.943 217.196 215.388C211.904 205.833 209.258 194.661 209.258 181.872C209.258 169.083 211.831 157.911 216.976 148.356C222.268 138.801 229.618 131.451 239.026 126.306C248.434 121.161 259.238 118.589 271.439 118.589C283.346 118.589 293.93 121.088 303.191 126.086C312.452 131.084 319.655 138.213 324.8 147.474C330.092 156.735 332.738 167.54 332.738 179.888ZM294.151 169.965C294.151 163.497 291.946 158.352 287.536 154.53C283.126 150.708 277.613 148.797 270.998 148.797C264.677 148.797 259.312 150.635 254.902 154.31C250.639 157.985 247.993 163.203 246.964 169.965H294.151ZM468.612 179.888C468.612 183.416 468.392 187.091 467.951 190.913H382.617C383.205 198.557 385.631 204.437 389.894 208.553C394.304 212.522 399.669 214.506 405.99 214.506C415.398 214.506 421.94 210.537 425.615 202.599H465.746C463.688 210.684 459.939 217.961 454.5 224.429C449.208 230.897 442.52 235.968 434.435 239.643C426.35 243.318 417.309 245.155 407.313 245.155C395.259 245.155 384.528 242.583 375.12 237.438C365.712 232.293 358.362 224.943 353.07 215.388C347.778 205.833 345.132 194.661 345.132 181.872C345.132 169.083 347.705 157.911 352.85 148.356C358.142 138.801 365.492 131.451 374.9 126.306C384.308 121.161 395.112 118.589 407.313 118.589C419.22 118.589 429.804 121.088 439.065 126.086C448.326 131.084 455.529 138.213 460.674 147.474C465.966 156.735 468.612 167.54 468.612 179.888ZM430.025 169.965C430.025 163.497 427.82 158.352 423.41 154.53C419 150.708 413.487 148.797 406.872 148.797C400.551 148.797 395.186 150.635 390.776 154.31C386.513 157.985 383.867 163.203 382.838 169.965H430.025ZM557.079 211.419V243.391H537.896C524.225 243.391 513.567 240.084 505.923 233.469C498.279 226.707 494.457 215.756 494.457 200.615V151.664H479.463V120.353H494.457V90.3648H532.163V120.353H556.859V151.664H532.163V201.056C532.163 204.731 533.045 207.377 534.809 208.994C536.573 210.611 539.513 211.419 543.629 211.419H557.079ZM718.08 119.03C732.192 119.03 743.511 123.734 752.037 133.142C760.563 142.403 764.826 155.192 764.826 171.509V243.391H727.341V176.58C727.341 168.348 725.209 161.954 720.946 157.397C716.683 152.84 710.95 150.561 703.747 150.561C696.544 150.561 690.811 152.84 686.548 157.397C682.285 161.954 680.154 168.348 680.154 176.58V243.391H642.449V80.2218H680.154V136.89C683.976 131.451 689.194 127.115 695.809 123.881C702.424 120.647 709.848 119.03 718.08 119.03ZM912.523 120.353V243.391H874.817V226.634C870.995 232.073 865.777 236.482 859.162 239.863C852.694 243.097 845.491 244.714 837.553 244.714C828.145 244.714 819.839 242.656 812.636 238.54C805.433 234.277 799.847 228.177 795.878 220.239C791.909 212.301 789.925 202.967 789.925 192.236V120.353H827.41V187.164C827.41 195.396 829.541 201.791 833.804 206.348C838.067 210.905 843.8 213.183 851.003 213.183C858.353 213.183 864.16 210.905 868.423 206.348C872.686 201.791 874.817 195.396 874.817 187.164V120.353H912.523ZM977.312 137.772C980.84 132.039 985.911 127.409 992.526 123.881C999.141 120.353 1006.71 118.589 1015.24 118.589C1025.38 118.589 1034.57 121.161 1042.8 126.306C1051.03 131.451 1057.5 138.801 1062.2 148.356C1067.05 157.911 1069.48 169.01 1069.48 181.652C1069.48 194.294 1067.05 205.466 1062.2 215.168C1057.5 224.723 1051.03 232.146 1042.8 237.438C1034.57 242.583 1025.38 245.155 1015.24 245.155C1006.56 245.155 998.994 243.465 992.526 240.084C986.058 236.556 980.987 231.926 977.312 226.193V243.391H939.606V80.2218H977.312V137.772ZM1031.11 181.652C1031.11 172.244 1028.47 164.894 1023.18 159.602C1018.03 154.163 1011.64 151.443 1003.99 151.443C996.495 151.443 990.1 154.163 984.808 159.602C979.664 165.041 977.091 172.464 977.091 181.872C977.091 191.28 979.664 198.704 984.808 204.143C990.1 209.582 996.495 212.301 1003.99 212.301C1011.49 212.301 1017.88 209.582 1023.18 204.143C1028.47 198.557 1031.11 191.06 1031.11 181.652Z" fill="white"/>
</svg>
