<svg width="1105" height="331" viewBox="0 0 1105 331" fill="none" xmlns="http://www.w3.org/2000/svg">
<g clip-path="url(#clip0_6_2)">
<rect x="593.879" y="31.7742" width="510.528" height="266.813" rx="41.4473" fill="#7A25E7"/>
<path d="M188.814 87.6008V242.391H151.109V149.561L116.49 242.391H86.0613L51.2223 149.341V242.391H13.5169V87.6008H58.0578L101.496 194.764L144.494 87.6008H188.814ZM331.911 178.888C331.911 182.416 331.691 186.091 331.25 189.913H245.917C246.505 197.557 248.93 203.437 253.193 207.553C257.603 211.522 262.969 213.506 269.289 213.506C278.697 213.506 285.239 209.537 288.914 201.599H329.045C326.987 209.684 323.238 216.961 317.799 223.429C312.507 229.897 305.819 234.968 297.734 238.643C289.649 242.318 280.608 244.155 270.612 244.155C258.559 244.155 247.828 241.583 238.42 236.438C229.012 231.293 221.662 223.943 216.37 214.388C211.078 204.833 208.432 193.661 208.432 180.872C208.432 168.083 211.004 156.911 216.149 147.356C221.441 137.801 228.791 130.451 238.199 125.306C247.607 120.161 258.412 117.589 270.612 117.589C282.519 117.589 293.103 120.088 302.364 125.086C311.625 130.084 318.828 137.213 323.973 146.474C329.265 155.735 331.911 166.54 331.911 178.888ZM293.324 168.965C293.324 162.497 291.119 157.352 286.709 153.53C282.299 149.708 276.786 147.797 270.171 147.797C263.851 147.797 258.485 149.635 254.075 153.31C249.812 156.985 247.166 162.203 246.137 168.965H293.324ZM467.786 178.888C467.786 182.416 467.565 186.091 467.124 189.913H381.791C382.379 197.557 384.804 203.437 389.067 207.553C393.477 211.522 398.843 213.506 405.164 213.506C414.572 213.506 421.113 209.537 424.788 201.599H464.919C462.861 209.684 459.113 216.961 453.674 223.429C448.382 229.897 441.693 234.968 433.608 238.643C425.523 242.318 416.483 244.155 406.487 244.155C394.433 244.155 383.702 241.583 374.294 236.438C364.886 231.293 357.536 223.943 352.244 214.388C346.952 204.833 344.306 193.661 344.306 180.872C344.306 168.083 346.878 156.911 352.023 147.356C357.315 137.801 364.665 130.451 374.073 125.306C383.481 120.161 394.286 117.589 406.487 117.589C418.394 117.589 428.978 120.088 438.239 125.086C447.5 130.084 454.703 137.213 459.848 146.474C465.14 155.735 467.786 166.54 467.786 178.888ZM429.198 168.965C429.198 162.497 426.993 157.352 422.583 153.53C418.173 149.708 412.661 147.797 406.046 147.797C399.725 147.797 394.359 149.635 389.949 153.31C385.686 156.985 383.04 162.203 382.011 168.965H429.198ZM556.252 210.419V242.391H537.069C523.398 242.391 512.74 239.084 505.097 232.469C497.453 225.707 493.631 214.756 493.631 199.615V150.664H478.637V119.353H493.631V89.3648H531.336V119.353H556.032V150.664H531.336V200.056C531.336 203.731 532.218 206.377 533.982 207.994C535.746 209.611 538.686 210.419 542.802 210.419H556.252Z" fill="#202020"/>
<path d="M717.253 118.03C731.365 118.03 742.684 122.734 751.21 132.142C759.736 141.403 763.999 154.192 763.999 170.509V242.391H726.514V175.58C726.514 167.348 724.383 160.954 720.12 156.397C715.857 151.84 710.124 149.561 702.921 149.561C695.718 149.561 689.985 151.84 685.722 156.397C681.459 160.954 679.327 167.348 679.327 175.58V242.391H641.622V79.2218H679.327V135.89C683.149 130.451 688.368 126.115 694.983 122.881C701.598 119.647 709.021 118.03 717.253 118.03ZM911.696 119.353V242.391H873.991V225.634C870.169 231.073 864.95 235.482 858.335 238.863C851.867 242.097 844.664 243.714 836.726 243.714C827.318 243.714 819.013 241.656 811.81 237.54C804.607 233.277 799.021 227.177 795.052 219.239C791.083 211.301 789.098 201.967 789.098 191.236V119.353H826.583V186.164C826.583 194.396 828.715 200.791 832.978 205.348C837.241 209.905 842.974 212.183 850.177 212.183C857.527 212.183 863.333 209.905 867.596 205.348C871.859 200.791 873.991 194.396 873.991 186.164V119.353H911.696ZM976.485 136.772C980.013 131.039 985.084 126.409 991.699 122.881C998.314 119.353 1005.88 117.589 1014.41 117.589C1024.55 117.589 1033.74 120.161 1041.97 125.306C1050.21 130.451 1056.67 137.801 1061.38 147.356C1066.23 156.911 1068.65 168.01 1068.65 180.652C1068.65 193.294 1066.23 204.466 1061.38 214.168C1056.67 223.723 1050.21 231.146 1041.97 236.438C1033.74 241.583 1024.55 244.155 1014.41 244.155C1005.74 244.155 998.167 242.465 991.699 239.084C985.231 235.556 980.16 230.926 976.485 225.193V242.391H938.779V79.2218H976.485V136.772ZM1030.29 180.652C1030.29 171.244 1027.64 163.894 1022.35 158.602C1017.2 153.163 1010.81 150.443 1003.17 150.443C995.668 150.443 989.274 153.163 983.982 158.602C978.837 164.041 976.264 171.464 976.264 180.872C976.264 190.28 978.837 197.704 983.982 203.143C989.274 208.582 995.668 211.301 1003.17 211.301C1010.66 211.301 1017.06 208.582 1022.35 203.143C1027.64 197.557 1030.29 190.06 1030.29 180.652Z" fill="white"/>
</g>
<defs>
<clipPath id="clip0_6_2">
<rect width="1104.41" height="330.486" fill="white"/>
</clipPath>
</defs>
</svg>
