<svg width="512" height="512" viewBox="0 0 512 512" fill="none" xmlns="http://www.w3.org/2000/svg">
<g clip-path="url(#clip0_8_6)">
<rect width="512" height="512" rx="41.4473" fill="#7A25E7"/>
<path d="M307.624 299.593V454.384H269.919V361.554L235.301 454.384H204.872L170.033 361.333V454.384H132.327V299.593H176.868L220.307 406.756L263.304 299.593H307.624ZM410.37 330.022C424.482 330.022 435.801 334.726 444.327 344.134C452.853 353.395 457.116 366.184 457.116 382.501V454.384H419.631V387.573C419.631 379.341 417.5 372.946 413.237 368.389C408.974 363.832 403.241 361.554 396.038 361.554C388.835 361.554 383.102 363.832 378.839 368.389C374.576 372.946 372.444 379.341 372.444 387.573V454.384H334.739V291.214H372.444V347.883C376.266 342.444 381.485 338.107 388.1 334.873C394.715 331.639 402.138 330.022 410.37 330.022Z" fill="white"/>
</g>
<defs>
<clipPath id="clip0_8_6">
<rect width="512" height="512" fill="white"/>
</clipPath>
</defs>
</svg>
